<svg xmlns="http://www.w3.org/2000/svg" data-name="Layer 1" viewBox="0 0 100 125" x="0px" y="0px"><title>32</title><g data-name="Group"><path data-name="Compound Path" d="M98.3,16.9A11.5,11.5,0,0,0,86.8,5.5H26.5a11,11,0,0,0-11,10.9l-.4,53.4H1.7V80.2A14.3,14.3,0,0,0,15.5,94.5H67.1A14.3,14.3,0,0,0,81.4,80.2V33.3H98.3ZM16,88.5a8.3,8.3,0,0,1-8.3-8.3V75.8h45v4.3a14.2,14.2,0,0,0,2.7,8.3Zm59.3-8.3a8.3,8.3,0,0,1-16.7,0V69.8H21.1l.4-53.4a5,5,0,0,1,5-5H76.8a11.4,11.4,0,0,0-1.4,5.4ZM92.3,27.3H81.4V16.9a5.5,5.5,0,0,1,10.9,0Z"/><rect data-name="Path" x="27.9" y="22.2" width="21.5" height="6"/><rect data-name="Path" x="27.9" y="34.2" width="39.5" height="6"/><rect data-name="Path" x="27.9" y="46.2" width="39.5" height="6"/><rect data-name="Path" x="27.9" y="58.2" width="39.5" height="6"/></g></svg>
