<svg xmlns="http://www.w3.org/2000/svg" xmlns:xlink="http://www.w3.org/1999/xlink" version="1.1" x="0px" y="0px" viewBox="0 0 100 125" style="enable-background:new 0 0 100 100;" xml:space="preserve"><title>44 all</title><path d="M86,26.5c0-6.1-4.9-11-11-11s-11,4.9-11,11c0,4.6,2.8,8.7,7.1,10.3L71,37.5c-0.4,3.5-0.7,6.3-2.6,9  c-1.4,2-3.9,3-8.4,3.3c-2.5,0.2-5.2,0.3-7.7,0.4s-5.3,0.2-8,0.4c-4.8,0.3-10.8,1.3-14.5,6c-0.7,0.9-1.4,1.9-1.9,2.9V29.1  c5.8-1.7,9.2-7.7,7.6-13.6C33.9,9.6,27.8,6.2,22,7.9s-9.2,7.7-7.6,13.6c1,3.7,3.9,6.5,7.6,7.6v41.9c-5.8,1.7-9.2,7.7-7.6,13.6  s7.7,9.2,13.6,7.6s9.2-7.7,7.6-13.6c-0.7-2.5-2.3-4.7-4.5-6.2c0.4-4.8,1.1-8.9,3.5-12c2.2-2.8,6.4-3.5,10.2-3.7  c2.6-0.2,5.3-0.3,7.8-0.4s5.2-0.2,7.9-0.4c3.9-0.3,9.5-1.2,12.8-5.9C76.1,46,76.6,42,77,38.2l0.1-0.9C82.3,36.3,86,31.8,86,26.5z   M20,18.5c0-2.8,2.2-5,5-5s5,2.2,5,5s-2.2,5-5,5S20,21.3,20,18.5z M25,86.5c-2.8,0-5-2.2-5-5s2.2-5,5-5s5,2.2,5,5S27.8,86.5,25,86.5  z M75,31.5c-2.8,0-5-2.2-5-5s2.2-5,5-5s5,2.2,5,5S77.8,31.5,75,31.5z"/></svg>
